Coordinates
nRows=128
nColumns=2
inDegrees=yes
endheader
time	ankle_angle_r	
3	 18.673124	
3.0625	 18.630981	
3.125	 18.650236	
3.1875	 18.650417	
3.25	 18.611362	
3.3125	 18.611181	
3.375	 18.615723	
3.4375	 18.595015	
3.5	 18.697104	
3.5625	 18.651508	
3.625	 18.692017	
3.6875	 18.707275	
3.75	 18.701462	
3.8125	 18.686022	
3.875	 18.670582	
3.9375	 18.716177	
4	 18.761770	
4.0625	 18.700554	
4.125	 18.791925	
4.1875	 18.731798	
4.25	 18.714542	
4.3125	 18.729982	
4.375	 18.699646	
4.4375	 18.745968	
4.5	 18.745060	
4.5625	 18.707275	
4.625	 18.746149	
4.6875	 18.713997	
4.75	 18.722534	
4.8125	 18.728891	
4.875	 18.707275	
4.9375	 18.798828	
5	 18.798828	
5.0625	 18.732162	
5.125	 18.742153	
5.1875	 18.722534	
5.25	 18.661499	
5.3125	 18.646240	
5.375	 18.646240	
5.4375	 18.692017	
5.5	 18.624441	
5.5625	 18.615723	
5.625	 18.668766	
5.6875	 18.604279	
5.75	 18.665133	
5.8125	 18.634434	
5.875	 18.622263	
5.9375	 18.719446	
6	 18.676758	
6.0625	 18.747602	
6.125	 18.750509	
6.1875	 18.702553	
6.25	 18.739973	
6.3125	 18.737793	
6.375	 18.693832	
6.4375	 18.724169	
6.5	 18.722534	
6.5625	 18.708548	
6.625	 18.738882	
6.6875	 18.706367	
6.75	 18.674578	
6.8125	 18.646240	
6.875	 18.616085	
6.9375	 18.631344	
7	 18.630981	
7.0625	 18.692198	
7.125	 18.645514	
7.1875	 18.630436	
7.25	 18.645514	
7.3125	 18.614815	
7.375	 18.647329	
7.4375	 18.661499	
7.5	 18.707275	
7.5625	 18.737793	
7.625	 18.707275	
7.6875	 18.678757	
7.75	 18.709455	
7.8125	 18.717812	
7.875	 18.753052	
7.9375	 18.719809	
8	 18.673851	
8.0625	 18.756140	
8.125	 18.668039	
8.1875	 18.642788	
8.25	 18.630981	
8.3125	 18.630981	
8.375	 18.684025	
8.4375	 18.642063	
8.5	 18.657139	
8.5625	 18.687475	
8.625	 18.589928	
8.6875	 18.615723	
8.75	 18.630981	
8.8125	 18.615723	
8.875	 18.671309	
8.9375	 18.667130	
9	 18.768311	
9.0625	 18.768311	
9.125	 18.692017	
9.1875	 18.768311	
9.25	 18.737793	
9.3125	 18.690201	
9.375	 18.744696	
9.4375	 18.708364	
9.5	 18.737793	
9.5625	 18.738155	
9.625	 18.684387	
9.6875	 18.646240	
9.75	 18.608456	
9.8125	 18.600464	
9.875	 18.700373	
9.9375	 18.663315	
10	 18.652781	
10.0625	 18.622080	
10.125	 18.606640	
10.1875	 18.640245	
10.25	 18.615723	
10.3125	 18.646240	
10.375	 18.682207	
10.4375	 18.630981	
10.5	 18.646240	
10.5625	 18.610273	
10.625	 18.635704	
10.6875	 18.635523	
10.75	 18.615723	
10.8125	 18.657322	
10.875	 18.642971	
10.9375	 18.630981	
